<?xml version="1.0" encoding="UTF-8" standalone="no"?><!DOCTYPE svg PUBLIC "-//W3C//DTD SVG 1.1//EN" "http://www.w3.org/Graphics/SVG/1.1/DTD/svg11.dtd"><svg width="100%" height="100%" viewBox="0 0 4167 4167" version="1.1" xmlns="http://www.w3.org/2000/svg" xmlns:xlink="http://www.w3.org/1999/xlink" xml:space="preserve" xmlns:serif="http://www.serif.com/" style="fill-rule:evenodd;clip-rule:evenodd;stroke-linejoin:round;stroke-miterlimit:2;"><rect x="0" y="0" width="4166.67" height="4166.67" style="fill:#fff;"/><path d="M1927.23,2083.33l-456.005,0c-12.937,0 -24.839,-7.073 -31.023,-18.436c-6.183,-11.364 -5.659,-25.199 1.366,-36.062l892.745,-1380.37c11.607,-17.948 34.089,-25.478 54.165,-18.141c20.076,7.336 32.406,27.587 29.707,48.79l-178.755,1404.22l456.006,0c12.937,0 24.839,7.074 31.022,18.437c6.184,11.364 5.66,25.199 -1.366,36.062l-892.744,1380.37c-11.608,17.949 -34.089,25.478 -54.165,18.142c-20.077,-7.337 -32.407,-27.587 -29.707,-48.791l178.754,-1404.22Z" style="fill:#509ce9;"/></svg>