<?xml version="1.0" encoding="UTF-8" standalone="no"?><!DOCTYPE svg PUBLIC "-//W3C//DTD SVG 1.1//EN" "http://www.w3.org/Graphics/SVG/1.1/DTD/svg11.dtd"><svg width="100%" height="100%" viewBox="0 0 500 500" version="1.1" xmlns="http://www.w3.org/2000/svg" xmlns:xlink="http://www.w3.org/1999/xlink" xml:space="preserve" xmlns:serif="http://www.serif.com/" style="fill-rule:evenodd;clip-rule:evenodd;stroke-linejoin:round;stroke-miterlimit:2;"><path d="M500,125l0,250c0,68.989 -56.011,125 -125,125l-250,0c-68.989,0 -125,-56.011 -125,-125l0,-250c0,-68.989 56.011,-125 125,-125l250,0c68.989,0 125,56.011 125,125Z" style="fill:#222;"/><path d="M226.289,250l-56.056,0c-2.283,-0 -4.38,-1.262 -5.449,-3.28c-1.069,-2.017 -0.936,-4.461 0.346,-6.35l116.991,-172.408c0.87,-1.283 2.504,-1.806 3.958,-1.267c1.454,0.539 2.353,2.001 2.177,3.542l-20.545,179.763l56.056,-0c2.283,0 4.38,1.262 5.449,3.28c1.069,2.017 0.936,4.461 -0.346,6.35l-116.991,172.408c-0.87,1.283 -2.504,1.806 -3.958,1.267c-1.454,-0.539 -2.353,-2.001 -2.177,-3.542l20.545,-179.763Z" style="fill:#509ce9;"/></svg>